<?xml version="1.0" encoding="utf-8"?>
<!-- Generator: Adobe Illustrator 19.1.0, SVG Export Plug-In . SVG Version: 6.00 Build 0)  -->
<svg version="1.1" id="Layer_1" xmlns="http://www.w3.org/2000/svg" xmlns:xlink="http://www.w3.org/1999/xlink" x="0px" y="0px"
	 viewBox="172.5 421 855.1 158.3" style="enable-background:new 0 0 1200 1000;" xml:space="preserve">
<style type="text/css">
	.st0{display:none;}
	.st1{display:inline;}
	.st2{fill:#175FAB;}
	.st3{fill:#33A6D6;}
	.st4{fill:#E12526;}
</style>
<g>
	<g>
		<g>
			<path class="st2" d="M268.1,572c-12.4-4.7-23.2-12.4-34.1-18.9c-10.6-6.4-21.8-11.8-33.5-12c-9-0.2-17.9,2.9-25.1,8.4
				c11.1-4.8,23.9-1.5,35.2,4.2c12,6.1,23.3,14.9,36.5,20.2c18.2,7.3,40,7.3,59.9-0.5c0.5-0.4,1.8-1,2.2-1.4
				C296.1,578.4,280.9,576.9,268.1,572z"/>
			<path class="st3" d="M172.4,537.9c16.8-8,36.6-9.3,54.3-3.7c13.3,4.2,25.2,12.1,38.6,15.9c21.8,6.1,46.6,0,63-15.5
				c1.4,10.9-4.2,21.5-13.2,27.8s-20.7,8.4-31.8,7c-11-1.4-21.4-5.8-31-11.4c-7.7-4.5-15-9.7-22.9-13.7
				C211.8,535.5,191.7,533.6,172.4,537.9"/>
			<path class="st4" d="M318.4,482.3l-6-2.5c1.8-4.8,2.7-9.7,2-14.7l3.1-0.7c0.5-0.1,0.8-0.6,0.7-1.1s-0.6-0.8-1.1-0.7l-3.1,0.7
				c-0.3-1.3-0.6-2.5-1.1-3.8c-2.3-4-4.6-5.7-6.6-6.3l0.1-3c0-0.5-0.4-0.9-0.9-0.9c-0.5,0-0.9,0.4-0.9,0.9l-0.1,2.9
				c-4.2,0.4-7.2,5.4-7.2,5.4c-1.5,2.7-2,6.2-2.3,9.5l-2.9-0.1c-0.5,0-0.9,0.4-1,0.9c0,0.5,0.4,0.9,0.9,1l2.8,0.1
				c-0.6,7.7-3.8,14.2-8.5,18.1l-2.7-2.8c-0.4-0.4-0.9-0.4-1.3,0s-0.4,0.9,0,1.3l2.5,2.7c-3.5,2.4-7.8,3.6-12.3,3
				c-0.2-0.5-0.5-1-0.5-1.5v-14.7h6.6c0.5,0,0.9-0.4,0.9-0.9s-0.4-0.9-0.9-0.9h-6.6v-13.3h2.6c0.5,0,0.9-0.4,0.9-0.9
				c0-0.5-0.4-0.9-0.9-0.9h-2.6v-9.6h4.6c0.5,0,0.9-0.4,0.9-0.9s-0.4-0.9-0.9-0.9h-4.6v-6.8c0-7.1-4.6-13.1-11-15.1l1-3.5
				c0.1-0.5-0.1-0.9-0.6-1.1c-0.5-0.1-0.9,0.1-1.1,0.6l-1,3.6c-1-0.2-2.1-0.3-3.2-0.3c0,0-0.1,0-0.1,0c-2-0.1-4,0.4-5.7,1
				c-2.4,0.8-4.5,2.3-6.1,4.3l-2.4-1.7c-0.4-0.3-0.9-0.2-1.2,0.2c-0.3,0.4-0.2,0.9,0.2,1.2l2.4,1.7c-1.9,2.6-3,5.8-3,9.3
				c0,0,0,0,0,0c0,0.1,0,1.3,0,3.2h-3c-0.5,0-0.9,0.4-0.9,0.9c0,0.5,0.4,0.9,0.9,0.9h3c0,3.7,0,9.2,0,15.6h-6.8
				c-0.5,0-0.9,0.4-0.9,0.9c0,0.5,0.4,0.9,0.9,0.9h6.8c0,4.4,0,9.2,0,14h-5.4c-0.5,0-0.9,0.4-0.9,0.9c0,0.5,0.4,0.9,0.9,0.9h5.4
				c0,5.6,0,11.2,0,16.4h-5.4c-0.5,0-0.9,0.4-0.9,0.9c0,0.5,0.4,0.9,0.9,0.9h5.4c0,3.6,0,7,0,9.9h-4.9c-0.5,0-0.9,0.4-0.9,0.9
				c0,0.5,0.4,0.9,0.9,0.9h4.9c0,5.3,0,8.7,0,8.7c-8.7-1.6-14-6.7-16.8-12.7l3.2-1.3c0.4-0.2,0.7-0.7,0.5-1.1s-0.7-0.7-1.1-0.5
				l-3.2,1.3c-1.2-3-1.8-6.2-2-9.2l0,0c-0.1-1.4-0.2-2.7-0.3-3.8l3.4-0.5c0.5-0.1,0.8-0.5,0.7-1c-0.1-0.5-0.5-0.8-1-0.7l-3.4,0.5
				c-0.7-4-1.7-6-2.2-6.7c-0.4-0.6-0.8-1.1-1.3-1.6l2.3-2.5c0.3-0.4,0.3-0.9-0.1-1.2c-0.4-0.3-0.9-0.3-1.2,0.1l-2.3,2.6
				c-1-0.7-2.1-1.3-3.3-1.7c-2.3-0.7-4.6-0.2-6.3,1.1c-1.2,0.9-2.1,2.2-2.6,3.7l-3.6-0.7c-0.5-0.1-0.9,0.2-1,0.7
				c-0.1,0.5,0.2,0.9,0.7,1l3.6,0.7c-0.4,2.8-0.8,8.4,0.3,14.8l-3.9,0.7c-0.5,0.1-0.8,0.5-0.7,1c0.1,0.5,0.5,0.8,1,0.7l3.9-0.7
				c0.8,4,2.2,8.2,4.6,12.2c0.6,1,1.3,2,2.1,3l-4.8,3.5c-0.4,0.3-0.5,0.8-0.2,1.2c0.3,0.4,0.8,0.5,1.2,0.2l4.9-3.5
				c0.3,0.4,0.6,0.7,0.9,1.1c0.1,0.1,0.1,0.2,0.2,0.2c3.2,3.6,7.2,7.1,12.5,10.2c3.2,1.8,6.5,3.4,9.9,4.9c0.6,0.3,7.9,3.8,10.9,5.3
				c5.1,2.4,10.2,4.8,15.6,6.7l0,0c0,0,0.2,0.1,0.6,0.2c1.3,0.5,2.7,0.9,4.1,1.3c1.3,0.4,2.7,0.7,4,0.9l0,0c0,0,4.3,1.3,11,1.6
				c2.1,0.1,4.1,0.1,6.1,0c5.5-0.3,11.8-1.4,18.6-4c0,0-29.1,6.4-32.4-5.1c-0.3-0.9-0.4-1.9-0.5-3l0,0c0-0.1,0-0.3,0-0.4h3.5
				c0.5,0,0.9-0.4,0.9-0.9s-0.4-0.9-0.9-0.9h-3.6c-0.1-4.5-0.2-9.1-0.2-13.6h4.4c0.5,0,0.9-0.4,0.9-0.9s-0.4-0.9-0.9-0.9h-4.4
				c0-1.2,0-2.4,0-3.5c0-1.9,2.5-4.6,4.5-5.4c2.3-1,4.6-2,6.9-3l2.3,4.7c0.2,0.5,0.8,0.7,1.2,0.4c0.5-0.2,0.7-0.8,0.4-1.2l-2.2-4.6
				c5.8-2.6,11.4-5.4,16.1-9.6l2.4,2.8c0.3,0.4,0.9,0.4,1.3,0.1c0.4-0.3,0.4-0.9,0.1-1.3l-2.4-2.9c2.1-2.1,4-4.5,5.6-7.4
				c1.2-2.2,2.2-4.3,3.2-6.6l6,2.5c0.5,0.2,1,0,1.2-0.5S318.9,482.5,318.4,482.3z"/>
		</g>
		<g>
			<g>
				<path class="st4" d="M389.2,499c-2.2-2.2-4.7-3.9-7.6-5.2c-2.8-1.3-6-1.9-9.6-1.9c-2.5,0-4.7,0.3-6.7,1c-2,0.7-3.7,1.6-5.2,2.7
					c-1.4,1.2-2.5,2.6-3.3,4.2c-0.8,1.6-1.2,3.4-1.2,5.2c0,2,0.4,3.7,1.2,5.3c0.8,1.6,2,3,3.4,4.2c1.5,1.2,3.3,2.1,5.4,2.7
					c2.1,0.7,4.5,1,7.1,1c3.3,0,6.3-0.6,9-1.8c2.7-1.2,5.2-3,7.5-5.5l8.1,4.3c-1.6,1.8-3.3,3.4-5.1,4.8c-1.8,1.3-3.6,2.4-5.6,3.3
					c-2,0.9-4.1,1.5-6.3,1.9c-2.2,0.4-4.6,0.6-7.2,0.6c-3.5,0-6.8-0.4-9.7-1.2c-3-0.8-5.9-2.1-8.7-3.8c-2.7-1.6-4.8-3.8-6.3-6.6
					c-1.6-2.8-2.3-5.8-2.3-9.2c0-2.8,0.6-5.4,1.7-7.9c1.1-2.4,2.8-4.6,5.1-6.4c2.5-2.1,5.5-3.7,8.9-4.8c3.4-1.1,7.1-1.7,11-1.7
					c5.3,0,10,1,14.1,2.8c4.1,1.9,7.7,4.8,10.9,8.8L389.2,499z"/>
				<path class="st4" d="M433.8,524.8l-3.9-6.9h-20.5l-3.9,6.9h-9.8l18.5-33.4h10.8l18.5,33.4H433.8z M419.7,499.4l-6,11h12
					L419.7,499.4z"/>
				<path class="st4" d="M482.6,503.8c-3.9-4-8.5-6-13.6-6c-2.2,0-4.1,0.2-5.9,0.7s-3.2,1.2-4.4,2c-1.2,0.9-2.1,1.9-2.8,3.2
					c-0.6,1.2-0.9,2.6-0.9,4.1c0,1.5,0.3,2.9,1,4.1c0.7,1.3,1.6,2.3,2.8,3.2c1.2,0.9,2.7,1.6,4.4,2.1c1.7,0.5,3.6,0.8,5.7,0.8
					c5.4,0,10.1-2,13.9-6.1l8.1,4.2c-5,6.3-12.3,9.4-22,9.4c-3.5,0-6.7-0.5-9.7-1.4c-2.9-1-5.5-2.3-7.7-4c-4-3.2-6.1-7.3-6.1-12.3
					c0-4.9,2-9,6.1-12.2c2.2-1.7,4.8-3,7.7-4c3-1,6.2-1.4,9.6-1.4c4.7,0,8.9,0.9,12.6,2.6c3.7,1.7,6.9,4.3,9.8,7.9L482.6,503.8z"/>
				<path class="st4" d="M516.6,498.9v25.9h-9.5v-25.9h-15.9v-7.5h41.3v7.5H516.6z"/>
				<path class="st4" d="M577.1,518.4c-1,1.5-2.3,2.8-4.1,3.9c-1.8,1.1-4,1.9-6.6,2.6c-2.6,0.6-5.5,0.9-8.8,0.9
					c-3.3,0-6.2-0.3-8.8-0.9c-2.6-0.6-4.8-1.5-6.6-2.6c-1.8-1.1-3.2-2.4-4.1-3.9c-1-1.5-1.4-3.2-1.4-5v-22h9.5v20.9
					c0,1.8,1,3.3,2.9,4.3c1.9,1,4.7,1.6,8.5,1.6c3.7,0,6.6-0.5,8.5-1.6c1.9-1,2.9-2.5,2.9-4.3v-20.9h9.5v22
					C578.6,515.2,578.1,516.9,577.1,518.4z"/>
				<path class="st4" d="M605,498c-3.3,0-5.8,0.3-7.4,0.9c-1.7,0.6-2.5,1.4-2.5,2.3c0,0.7,0.3,1.2,0.9,1.5c0.6,0.3,1.4,0.6,2.5,0.8
					c1.1,0.2,2.5,0.3,4.2,0.4c1.7,0.1,3.6,0.3,5.7,0.4c6.1,0.5,10.6,1.5,13.6,3c3,1.5,4.4,3.8,4.4,6.8c0,3.6-1.7,6.4-5.1,8.5
					c-3.4,2.1-8.4,3.1-14.9,3.1c-4.4,0-8.5-0.5-12.3-1.6c-3.8-1.1-7.5-2.8-11.1-5.2l4.9-6c2.6,1.7,5.5,3,8.5,3.8
					c3,0.8,6.3,1.2,9.9,1.2c3.3,0,5.8-0.3,7.4-0.9c1.6-0.6,2.5-1.3,2.5-2.3c0-0.5-0.3-1-1-1.3c-0.7-0.3-1.6-0.6-2.9-0.8
					c-1.3-0.2-2.9-0.4-4.7-0.6c-1.9-0.2-4.1-0.3-6.5-0.5c-10.6-0.8-15.9-4.2-15.9-10.1c0-1.7,0.4-3.2,1.3-4.6
					c0.8-1.4,2.1-2.5,3.7-3.5c1.6-1,3.6-1.7,5.9-2.3c2.4-0.5,5-0.8,8-0.8c4.4,0,8.3,0.4,11.7,1.2c3.4,0.8,6.5,2.1,9.2,4l-4.5,6
					C615.4,499.1,610.2,498,605,498z"/>
			</g>
			<path class="st2" d="M700.4,505.1c0,5.8-2.3,10.6-6.8,14.4c-2.5,2.1-5.4,3.7-8.8,4.8c-3.4,1.1-7.1,1.7-11.1,1.7
				c-4,0-7.7-0.6-11.1-1.7c-3.4-1.1-6.3-2.7-8.8-4.8c-2.2-1.8-3.9-4-5-6.4c-1.1-2.4-1.7-5.1-1.7-8c0-2.9,0.6-5.5,1.7-7.9
				c1.1-2.4,2.8-4.5,5.1-6.4c2.5-2.1,5.5-3.7,8.9-4.8c3.4-1.1,7.1-1.7,11-1.7c3.9,0,7.6,0.6,11,1.7c3.4,1.1,6.4,2.7,8.9,4.8
				C698.1,494.6,700.4,499.3,700.4,505.1z M690.5,505.1c0-2-0.4-3.7-1.2-5.3c-0.8-1.6-1.9-3-3.4-4.1c-1.5-1.2-3.2-2.1-5.3-2.7
				c-2.1-0.7-4.4-1-7-1c-2.6,0-4.9,0.3-7,1c-2.1,0.7-3.9,1.6-5.3,2.7c-1.5,1.2-2.6,2.5-3.4,4.1c-0.8,1.6-1.2,3.4-1.2,5.3
				c0,2,0.4,3.8,1.2,5.4c0.8,1.6,1.9,3,3.4,4.2c1.5,1.2,3.2,2.1,5.3,2.7c2.1,0.6,4.4,0.9,7,0.9c2.6,0,4.9-0.3,7-0.9
				c2.1-0.6,3.9-1.5,5.3-2.7c1.5-1.2,2.6-2.6,3.4-4.2C690.1,508.9,690.5,507,690.5,505.1z"/>
			<path class="st2" d="M718,498.9v5.5h18.1v7.5H718v12.9h-9.5v-33.4h36.2v7.5H718z"/>
			<path class="st2" d="M760.2,498.9v5.5h18.1v7.5h-18.1v12.9h-9.5v-33.4h36.2v7.5H760.2z"/>
			<path class="st2" d="M809.1,498c-3.3,0-5.8,0.3-7.4,0.9c-1.7,0.6-2.5,1.4-2.5,2.3c0,0.7,0.3,1.2,0.9,1.5c0.6,0.3,1.4,0.6,2.6,0.8
				c1.1,0.2,2.5,0.3,4.2,0.4c1.7,0.1,3.6,0.3,5.7,0.4c6.1,0.5,10.7,1.5,13.6,3c3,1.5,4.4,3.8,4.4,6.8c0,3.6-1.7,6.4-5.1,8.5
				c-3.4,2.1-8.4,3.1-14.9,3.1c-4.4,0-8.5-0.5-12.3-1.6c-3.8-1.1-7.5-2.8-11.1-5.2l4.9-6c2.6,1.7,5.5,3,8.5,3.8
				c3,0.8,6.3,1.2,9.9,1.2c3.3,0,5.8-0.3,7.4-0.9c1.6-0.6,2.5-1.3,2.5-2.3c0-0.5-0.3-1-1-1.3c-0.7-0.3-1.6-0.6-2.9-0.8
				c-1.3-0.2-2.9-0.4-4.7-0.6c-1.9-0.2-4.1-0.3-6.5-0.5c-10.6-0.8-15.9-4.2-15.9-10.1c0-1.7,0.4-3.2,1.3-4.6
				c0.8-1.4,2.1-2.5,3.7-3.5s3.6-1.7,5.9-2.3c2.4-0.5,5-0.8,8-0.8c4.4,0,8.3,0.4,11.7,1.2c3.4,0.8,6.5,2.1,9.2,4l-4.5,6
				C819.4,499.1,814.2,498,809.1,498z"/>
			<path class="st2" d="M870.8,524.8v-12.9H847v12.9h-9.5v-33.3h9.5v13h23.8v-13h9.5v33.3H870.8z"/>
			<path class="st2" d="M934.4,508c0,5-2,9.1-6,12.3c-2.2,1.7-4.7,3-7.7,4c-3,1-6.2,1.4-9.7,1.4c-3.5,0-6.7-0.5-9.7-1.4
				c-3-1-5.5-2.3-7.7-4c-4-3.1-6-7.2-6-12.3c0-5,2-9,6.1-12.2c2.2-1.7,4.7-3.1,7.7-4c3-0.9,6.2-1.4,9.7-1.4c3.4,0,6.6,0.5,9.6,1.4
				c3,0.9,5.5,2.3,7.7,4C932.4,499,934.4,503,934.4,508z M924.6,508c0-1.5-0.3-2.8-1-4.1c-0.6-1.2-1.5-2.3-2.7-3.2
				c-1.2-0.9-2.6-1.6-4.3-2.1c-1.7-0.5-3.5-0.8-5.6-0.8c-2.1,0-4,0.3-5.7,0.8c-1.7,0.5-3.1,1.2-4.3,2.1c-1.2,0.9-2.1,2-2.7,3.2
				c-0.6,1.2-0.9,2.6-0.9,4.1c0,1.5,0.3,2.9,0.9,4.1c0.6,1.2,1.5,2.3,2.7,3.2c1.2,0.9,2.6,1.6,4.3,2.1c1.7,0.5,3.6,0.7,5.7,0.7
				c2.1,0,4-0.2,5.6-0.7c1.7-0.5,3.1-1.2,4.3-2.1c1.2-0.9,2.1-2,2.7-3.2C924.3,510.9,924.6,509.5,924.6,508z"/>
			<path class="st2" d="M973.7,524.8l-7.9-10.8h-14.6v10.8h-9.5v-33.4h28c2,0,3.8,0.3,5.5,0.8c1.6,0.5,3,1.3,4.2,2.3
				c1.2,1,2.1,2.2,2.7,3.6c0.6,1.4,0.9,2.9,0.9,4.6c0,5-2.3,8.4-7,10.2l8.5,11.9H973.7z M972.3,505.3c0.8-0.8,1.2-1.7,1.2-2.9
				c0-1.1-0.4-1.9-1.2-2.6c-0.8-0.7-2-1-3.5-1h-17.6v7.6h17.6C970.3,506.5,971.5,506.1,972.3,505.3z"/>
			<path class="st2" d="M990.1,524.8v-33.4h36.2v7.5h-26.7v5.5h18.1v7.5h-18.1v5.4h28v7.5H990.1z"/>
		</g>
	</g>
</g>
</svg>
