<?xml version="1.0" encoding="utf-8"?>
<!-- Generator: Adobe Illustrator 19.1.0, SVG Export Plug-In . SVG Version: 6.00 Build 0)  -->
<svg version="1.1" id="Layer_1" xmlns="http://www.w3.org/2000/svg" xmlns:xlink="http://www.w3.org/1999/xlink" x="0px" y="0px"
	 viewBox="386.4 408.1 427.3 183.9" style="enable-background:new 0 0 1200 1000;" xml:space="preserve">
<style type="text/css">
	.st0{fill:#175FAB;}
	.st1{fill:#33A6D6;}
	.st2{fill:#E12526;}
	.st3{display:none;}
	.st4{display:inline;}
</style>
<g>
	<g>
		<g>
			<path class="st0" d="M615.2,538.3c-10.7-4.1-20-10.6-29.4-16.2c-9.2-5.5-18.8-10.1-28.8-10.3c-7.7-0.1-15.4,2.5-21.6,7.2
				c9.5-4.1,20.6-1.3,30.3,3.6c10.4,5.3,20,12.9,31.4,17.4c15.7,6.3,34.4,6.3,51.6-0.5c0.4-0.4,1.5-0.8,1.9-1.2
				C639.3,543.7,626.2,542.4,615.2,538.3z"/>
			<path class="st1" d="M532.8,508.9c14.4-6.8,31.5-8,46.7-3.2c11.4,3.6,21.7,10.4,33.3,13.7c18.7,5.2,40.1,0,54.2-13.3
				c1.2,9.4-3.6,18.5-11.4,24c-7.8,5.5-17.9,7.2-27.3,6c-9.5-1.2-18.4-5-26.7-9.8c-6.6-3.9-12.9-8.3-19.8-11.8
				C566.7,506.8,549.4,505.2,532.8,508.9"/>
			<path class="st2" d="M658.4,461.1l-5.2-2.2c1.5-4.1,2.3-8.3,1.7-12.7l2.7-0.6c0.4-0.1,0.7-0.5,0.6-0.9c-0.1-0.4-0.5-0.7-0.9-0.6
				l-2.6,0.6c-0.2-1.1-0.5-2.2-1-3.3c-2-3.4-3.9-4.9-5.7-5.4l0.1-2.6c0-0.4-0.3-0.8-0.8-0.8s-0.8,0.3-0.8,0.8l-0.1,2.5
				c-3.6,0.3-6.2,4.7-6.2,4.7c-1.3,2.4-1.7,5.3-2,8.2l-2.5-0.1c-0.4,0-0.8,0.3-0.8,0.8s0.3,0.8,0.8,0.8l2.4,0.1
				c-0.5,6.6-3.3,12.2-7.3,15.6l-2.3-2.4c-0.3-0.3-0.8-0.3-1.1,0c-0.3,0.3-0.3,0.8,0,1.1l2.2,2.3c-3,2.1-6.7,3.1-10.6,2.5
				c-0.1-0.4-0.4-0.9-0.4-1.3v-12.7h5.7c0.4,0,0.8-0.4,0.8-0.8c0-0.4-0.4-0.8-0.8-0.8h-5.7v-11.4h2.2c0.4,0,0.8-0.4,0.8-0.8
				s-0.4-0.8-0.8-0.8h-2.2v-8.3h3.9c0.4,0,0.8-0.4,0.8-0.8c0-0.4-0.4-0.8-0.8-0.8h-3.9V425c0-6.1-4-11.3-9.5-13l0.9-3
				c0.1-0.4-0.1-0.8-0.5-0.9s-0.8,0.1-0.9,0.5l-0.9,3.1c-0.9-0.2-1.8-0.3-2.8-0.3c0,0,0,0-0.1,0c-1.8,0-3.5,0.3-4.9,0.8
				c-2.1,0.7-3.9,2-5.2,3.7l-2-1.5c-0.3-0.2-0.8-0.2-1,0.2c-0.2,0.3-0.2,0.8,0.2,1l2,1.5c-1.6,2.2-2.6,5-2.6,8c0,0,0,0,0,0
				c0,0.1,0,1.1,0,2.8h-2.6c-0.4,0-0.7,0.3-0.7,0.7c0,0.4,0.3,0.7,0.7,0.7h2.6c0,3.2,0,8,0,13.4h-5.9c-0.4,0-0.7,0.3-0.7,0.7
				s0.3,0.7,0.7,0.7h5.9c0,3.8,0,7.9,0,12.1h-4.6c-0.4,0-0.7,0.3-0.7,0.7c0,0.4,0.3,0.7,0.7,0.7h4.6c0,4.8,0,9.7,0,14.1h-4.6
				c-0.4,0-0.7,0.3-0.7,0.7c0,0.4,0.3,0.7,0.7,0.7h4.6c0,3.1,0,6,0,8.5h-4.2c-0.4,0-0.7,0.3-0.7,0.7c0,0.4,0.3,0.7,0.7,0.7h4.2
				c0,4.6,0,7.4,0,7.4c-7.5-1.4-12-5.8-14.5-10.9l2.7-1.1c0.4-0.2,0.6-0.6,0.4-1c-0.2-0.4-0.6-0.6-1-0.4l-2.8,1.1
				c-1-2.6-1.6-5.3-1.7-7.9l0,0c-0.1-1.2-0.1-2.3-0.3-3.3l2.9-0.4c0.4-0.1,0.7-0.4,0.6-0.8c-0.1-0.4-0.4-0.7-0.8-0.6l-3,0.4
				c-0.6-3.5-1.4-5.1-1.9-5.8c-0.3-0.5-0.7-1-1.1-1.4l2-2.2c0.3-0.3,0.3-0.8-0.1-1.1c-0.3-0.3-0.8-0.3-1.1,0.1l-2,2.2
				c-0.8-0.6-1.8-1.1-2.8-1.4c-2-0.6-3.9-0.2-5.5,1c-1.1,0.8-1.8,1.9-2.2,3.2l-3.1-0.6c-0.4-0.1-0.8,0.2-0.9,0.6s0.2,0.8,0.6,0.9
				l3.1,0.6c-0.3,2.4-0.7,7.2,0.2,12.7l-3.3,0.6c-0.4,0.1-0.7,0.5-0.6,0.9s0.5,0.7,0.9,0.6l3.3-0.6c0.7,3.4,1.9,7.1,4,10.5
				c0.5,0.9,1.1,1.7,1.8,2.6l-4.2,3c-0.3,0.2-0.4,0.7-0.2,1c0.2,0.3,0.7,0.4,1,0.2l4.2-3c0.3,0.3,0.5,0.6,0.8,0.9
				c0.1,0.1,0.1,0.1,0.2,0.2c2.7,3.1,6.2,6.1,10.8,8.8c2.7,1.5,5.6,2.9,8.5,4.2c0.6,0.3,6.8,3.3,9.4,4.5c4.4,2.1,8.8,4.2,13.4,5.8
				l0,0c0,0,0.2,0.1,0.5,0.2c1.2,0.4,2.3,0.8,3.5,1.1c1.1,0.3,2.3,0.6,3.4,0.8l0,0c0,0,3.7,1.1,9.5,1.4c1.8,0.1,3.6,0.1,5.3,0
				c4.7-0.3,10.2-1.2,16-3.4c0,0-25.1,5.5-27.9-4.4c-0.2-0.8-0.4-1.7-0.4-2.6l0,0c0-0.1,0-0.2,0-0.3h3c0.4,0,0.8-0.4,0.8-0.8
				s-0.4-0.8-0.8-0.8h-3.1c-0.1-3.9-0.2-7.8-0.2-11.7h3.8c0.4,0,0.8-0.4,0.8-0.8s-0.4-0.8-0.8-0.8h-3.8c0-1,0-2,0-3
				c0-1.6,2.1-3.9,3.8-4.7c2-0.9,3.9-1.7,5.9-2.6l2,4c0.2,0.4,0.7,0.6,1.1,0.4c0.4-0.2,0.6-0.7,0.4-1.1l-1.9-4
				c5-2.2,9.9-4.6,13.9-8.2l2.1,2.4c0.3,0.3,0.8,0.4,1.1,0.1c0.3-0.3,0.4-0.8,0.1-1.1l-2.1-2.5c1.8-1.8,3.4-3.9,4.8-6.4
				c1-1.9,1.9-3.7,2.7-5.6l5.2,2.2c0.4,0.2,0.9,0,1-0.4C659,461.7,658.9,461.2,658.4,461.1z"/>
		</g>
		<g>
			<path class="st2" d="M413.3,575.1c-1.4-1.4-3-2.4-4.7-3.2c-1.8-0.8-3.8-1.2-6-1.2c-1.5,0-2.9,0.2-4.2,0.6c-1.3,0.4-2.3,1-3.2,1.7
				c-0.9,0.7-1.6,1.6-2.1,2.6c-0.5,1-0.7,2.1-0.7,3.3c0,1.2,0.3,2.3,0.8,3.4c0.5,1,1.2,1.9,2.2,2.6c0.9,0.7,2.1,1.3,3.4,1.7
				c1.3,0.4,2.8,0.6,4.4,0.6c2.1,0,4-0.4,5.6-1.1c1.7-0.7,3.2-1.9,4.7-3.5l5.1,2.7c-1,1.2-2.1,2.2-3.2,3c-1.1,0.8-2.3,1.5-3.5,2.1
				c-1.2,0.5-2.6,0.9-3.9,1.2c-1.4,0.2-2.9,0.4-4.5,0.4c-2.2,0-4.2-0.3-6.1-0.8c-1.9-0.5-3.7-1.3-5.5-2.4c-1.7-1-3-2.4-4-4.2
				c-1-1.7-1.5-3.7-1.5-5.7c0-1.8,0.4-3.4,1.1-4.9c0.7-1.5,1.8-2.9,3.2-4c1.6-1.3,3.4-2.3,5.6-3c2.1-0.7,4.4-1.1,6.9-1.1
				c3.3,0,6.3,0.6,8.9,1.8c2.6,1.2,4.9,3,6.9,5.5L413.3,575.1z"/>
			<path class="st2" d="M441.3,591.3l-2.4-4.3h-12.9l-2.4,4.3h-6.2l11.6-20.9h6.8l11.6,20.9H441.3z M432.5,575.4l-3.8,6.9h7.6
				L432.5,575.4z"/>
			<path class="st2" d="M471.9,578.1c-2.5-2.5-5.3-3.7-8.5-3.7c-1.4,0-2.6,0.2-3.7,0.5c-1.1,0.3-2,0.7-2.8,1.3s-1.3,1.2-1.7,2
				c-0.4,0.8-0.6,1.6-0.6,2.6c0,0.9,0.2,1.8,0.6,2.6c0.4,0.8,1,1.5,1.8,2c0.8,0.6,1.7,1,2.7,1.3c1.1,0.3,2.3,0.5,3.6,0.5
				c3.4,0,6.3-1.3,8.7-3.8l5.1,2.6c-3.2,3.9-7.7,5.9-13.8,5.9c-2.2,0-4.2-0.3-6.1-0.9c-1.8-0.6-3.5-1.4-4.8-2.5
				c-2.5-2-3.8-4.6-3.8-7.7c0-3.1,1.3-5.6,3.8-7.6c1.4-1.1,3-1.9,4.8-2.5c1.9-0.6,3.9-0.9,6-0.9c3,0,5.6,0.5,7.9,1.6
				c2.3,1.1,4.3,2.7,6.2,4.9L471.9,578.1z"/>
			<path class="st2" d="M493.3,575.1v16.2h-6v-16.2h-10v-4.7h25.9v4.7H493.3z"/>
			<path class="st2" d="M531.2,587.3c-0.6,0.9-1.5,1.8-2.6,2.5c-1.1,0.7-2.5,1.2-4.1,1.6c-1.6,0.4-3.5,0.6-5.5,0.6
				c-2,0-3.9-0.2-5.5-0.6c-1.6-0.4-3-0.9-4.1-1.6c-1.1-0.7-2-1.5-2.6-2.5c-0.6-0.9-0.9-2-0.9-3.1v-13.8h6v13.1
				c0,1.2,0.6,2.1,1.8,2.7c1.2,0.7,3,1,5.3,1c2.3,0,4.1-0.3,5.3-1c1.2-0.7,1.8-1.6,1.8-2.7v-13.1h6v13.8
				C532.1,585.3,531.8,586.3,531.2,587.3z"/>
			<path class="st2" d="M548.7,574.5c-2.1,0-3.6,0.2-4.7,0.6c-1,0.4-1.6,0.9-1.6,1.4c0,0.4,0.2,0.8,0.5,1c0.4,0.2,0.9,0.4,1.6,0.5
				c0.7,0.1,1.6,0.2,2.6,0.3c1,0.1,2.2,0.2,3.6,0.3c3.8,0.3,6.7,0.9,8.5,1.9c1.9,0.9,2.8,2.4,2.8,4.2c0,2.2-1.1,4-3.2,5.3
				c-2.1,1.3-5.2,2-9.3,2c-2.7,0-5.3-0.3-7.7-1c-2.4-0.7-4.7-1.8-7-3.2l3.1-3.7c1.7,1.1,3.4,1.9,5.3,2.4c1.9,0.5,4,0.7,6.2,0.7
				c2.1,0,3.6-0.2,4.6-0.5c1-0.4,1.5-0.8,1.5-1.4c0-0.3-0.2-0.6-0.6-0.8c-0.4-0.2-1-0.4-1.8-0.5c-0.8-0.1-1.8-0.3-3-0.4
				c-1.2-0.1-2.5-0.2-4.1-0.3c-6.6-0.5-10-2.6-10-6.4c0-1,0.3-2,0.8-2.9c0.5-0.9,1.3-1.6,2.3-2.2c1-0.6,2.3-1.1,3.7-1.4
				c1.5-0.3,3.2-0.5,5-0.5c2.7,0,5.2,0.2,7.3,0.7c2.1,0.5,4.1,1.3,5.8,2.5l-2.8,3.7C555.2,575.2,552,574.5,548.7,574.5z"/>
			<path class="st0" d="M608.5,578.9c0,3.7-1.4,6.7-4.3,9c-1.6,1.3-3.4,2.3-5.5,3c-2.1,0.7-4.5,1.1-7,1.1c-2.5,0-4.8-0.4-7-1.1
				c-2.1-0.7-4-1.7-5.5-3c-1.4-1.2-2.5-2.5-3.2-4c-0.7-1.5-1.1-3.2-1.1-5c0-1.8,0.4-3.4,1.1-4.9c0.7-1.5,1.8-2.8,3.2-4
				c1.6-1.3,3.4-2.3,5.6-3c2.1-0.7,4.5-1.1,6.9-1.1c2.5,0,4.8,0.4,6.9,1.1c2.1,0.7,4,1.7,5.6,3C607.1,572.3,608.5,575.3,608.5,578.9
				z M602.3,578.9c0-1.2-0.3-2.3-0.7-3.4c-0.5-1-1.2-1.9-2.1-2.6c-0.9-0.7-2-1.3-3.3-1.7c-1.3-0.4-2.8-0.6-4.4-0.6
				c-1.6,0-3.1,0.2-4.4,0.6s-2.4,1-3.3,1.7c-0.9,0.7-1.6,1.6-2.1,2.6c-0.5,1-0.7,2.1-0.7,3.4c0,1.2,0.2,2.4,0.7,3.4s1.2,1.9,2.1,2.6
				c0.9,0.7,2,1.3,3.3,1.7c1.3,0.4,2.8,0.6,4.4,0.6s3.1-0.2,4.4-0.6c1.3-0.4,2.4-1,3.3-1.7c0.9-0.7,1.6-1.6,2.1-2.6
				C602.1,581.3,602.3,580.2,602.3,578.9z"/>
			<path class="st0" d="M619.6,575.1v3.5h11.4v4.7h-11.4v8.1h-6v-20.9h22.7v4.7H619.6z"/>
			<path class="st0" d="M646,575.1v3.5h11.4v4.7H646v8.1h-6v-20.9h22.7v4.7H646z"/>
			<path class="st0" d="M676.6,574.5c-2.1,0-3.6,0.2-4.7,0.6c-1,0.4-1.6,0.9-1.6,1.4c0,0.4,0.2,0.8,0.5,1c0.4,0.2,0.9,0.4,1.6,0.5
				c0.7,0.1,1.6,0.2,2.6,0.3c1,0.1,2.2,0.2,3.6,0.3c3.8,0.3,6.7,0.9,8.5,1.9c1.9,0.9,2.8,2.4,2.8,4.2c0,2.2-1.1,4-3.2,5.3
				c-2.1,1.3-5.2,2-9.3,2c-2.7,0-5.3-0.3-7.7-1c-2.4-0.7-4.7-1.8-7-3.2l3.1-3.7c1.7,1.1,3.4,1.9,5.3,2.4c1.9,0.5,4,0.7,6.2,0.7
				c2.1,0,3.6-0.2,4.6-0.5c1-0.4,1.5-0.8,1.5-1.4c0-0.3-0.2-0.6-0.6-0.8c-0.4-0.2-1-0.4-1.8-0.5c-0.8-0.1-1.8-0.3-3-0.4
				c-1.2-0.1-2.5-0.2-4.1-0.3c-6.6-0.5-10-2.6-10-6.4c0-1,0.3-2,0.8-2.9c0.5-0.9,1.3-1.6,2.3-2.2c1-0.6,2.3-1.1,3.7-1.4
				c1.5-0.3,3.2-0.5,5-0.5c2.7,0,5.2,0.2,7.3,0.7c2.1,0.5,4.1,1.3,5.8,2.5l-2.8,3.7C683.1,575.2,679.9,574.5,676.6,574.5z"/>
			<path class="st0" d="M715.3,591.3v-8.1h-14.9v8.1h-6v-20.9h6v8.1h14.9v-8.1h6v20.9H715.3z"/>
			<path class="st0" d="M755.2,580.8c0,3.2-1.3,5.7-3.8,7.7c-1.4,1.1-3,1.9-4.8,2.5c-1.9,0.6-3.9,0.9-6.1,0.9
				c-2.2,0-4.2-0.3-6.1-0.9c-1.9-0.6-3.5-1.4-4.8-2.5c-2.5-2-3.8-4.5-3.8-7.7c0-3.1,1.3-5.7,3.8-7.7c1.4-1.1,3-1.9,4.8-2.5
				c1.9-0.6,3.9-0.9,6.1-0.9c2.2,0,4.2,0.3,6,0.9c1.9,0.6,3.5,1.4,4.8,2.5C754,575.1,755.2,577.7,755.2,580.8z M749.1,580.8
				c0-0.9-0.2-1.8-0.6-2.6c-0.4-0.8-1-1.5-1.7-2c-0.7-0.6-1.6-1-2.7-1.3c-1-0.3-2.2-0.5-3.5-0.5c-1.3,0-2.5,0.2-3.6,0.5
				c-1.1,0.3-2,0.8-2.7,1.3c-0.7,0.6-1.3,1.2-1.7,2c-0.4,0.8-0.6,1.6-0.6,2.6c0,1,0.2,1.8,0.6,2.6c0.4,0.8,1,1.5,1.7,2
				c0.7,0.6,1.6,1,2.7,1.3c1.1,0.3,2.3,0.5,3.6,0.5c1.3,0,2.5-0.2,3.5-0.5c1-0.3,1.9-0.7,2.7-1.3c0.7-0.6,1.3-1.2,1.7-2
				C748.9,582.6,749.1,581.7,749.1,580.8z"/>
			<path class="st0" d="M779.9,591.3l-4.9-6.8h-9.1v6.8h-6v-20.9h17.6c1.2,0,2.4,0.2,3.4,0.5c1,0.3,1.9,0.8,2.6,1.4
				c0.7,0.6,1.3,1.4,1.7,2.2c0.4,0.9,0.6,1.8,0.6,2.9c0,3.1-1.5,5.3-4.4,6.4l5.3,7.5H779.9z M779,579.1c0.5-0.5,0.8-1.1,0.8-1.8
				c0-0.7-0.3-1.2-0.8-1.6c-0.5-0.4-1.3-0.6-2.2-0.6h-11v4.8h11.1C777.8,579.8,778.5,579.6,779,579.1z"/>
			<path class="st0" d="M790.1,591.3v-20.9h22.7v4.7h-16.7v3.5h11.4v4.7h-11.4v3.4h17.6v4.7H790.1z"/>
		</g>
	</g>
</g>
</svg>
